<svg width="150" height="150" viewBox="0 0 172 172" fill="none" xmlns="http://www.w3.org/2000/svg">
<rect x="8" y="8" width="156" height="156" rx="78" fill="white"/>
<rect x="54" y="54" width="64" height="64" rx="32" fill="#E1FFA0"/>
<path d="M81.7104 75.9827L96.0176 75.9827L96.0176 90.2898" stroke="#111111" stroke-width="3" stroke-miterlimit="10" stroke-linecap="square" stroke-linejoin="round"/>
<path d="M74.9223 94.9567L73.8616 96.0173L75.9829 98.1387L77.0436 97.078L74.9223 94.9567ZM96.8779 77.2437C97.4637 76.6579 97.4637 75.7081 96.8779 75.1223C96.2921 74.5365 95.3424 74.5365 94.7566 75.1223L96.8779 77.2437ZM77.0436 97.078L96.8779 77.2437L94.7566 75.1223L74.9223 94.9567L77.0436 97.078Z" fill="#111111"/>
<path fill-rule="evenodd" clip-rule="evenodd" d="M81.5658 155.894L83.0982 156L83.8781 144.843L82.3458 144.737L81.5658 155.894ZM90.4058 144.568C91.0338 144.527 91.5638 144.62 91.9957 144.849C92.4178 145.088 92.7653 145.413 93.0382 145.823C93.2877 146.213 93.481 146.632 93.6181 147.078L93.5647 146.269C93.5486 146.025 93.5452 145.731 93.5547 145.388C93.5535 145.046 93.5558 144.757 93.5616 144.522L94.9666 144.43L95.7034 155.59L94.1866 155.689L93.828 150.257C93.75 150.707 93.6164 151.113 93.4273 151.473C93.2184 151.872 92.9134 152.191 92.5124 152.431C92.1113 152.671 91.5914 152.812 90.9528 152.854C90.2397 152.9 89.5944 152.761 89.017 152.435C88.4297 152.121 87.9557 151.66 87.5949 151.053C87.2348 150.456 87.0281 149.754 86.9747 148.945C86.9213 148.136 87.0388 147.407 87.3273 146.757C87.6165 146.118 88.0316 145.605 88.5725 145.217C89.1028 144.829 89.7139 144.613 90.4058 144.568ZM93.507 150.009C93.6811 149.57 93.7495 149.069 93.7123 148.505C93.6779 147.983 93.5508 147.516 93.3311 147.102C93.1008 146.69 92.7856 146.368 92.3855 146.138C91.9755 145.919 91.4885 145.828 90.9243 145.865C90.4134 145.898 89.9741 146.044 89.6064 146.304C89.2287 146.574 88.9472 146.924 88.7617 147.353C88.5663 147.793 88.4868 148.29 88.5234 148.844C88.5775 149.663 88.8509 150.324 89.3438 150.826C89.8259 151.329 90.4768 151.554 91.2964 151.5C91.8499 151.464 92.3158 151.316 92.6942 151.056C93.0619 150.797 93.3328 150.448 93.507 150.009ZM104.423 142.539C103.788 142.337 103.139 142.32 102.477 142.487C101.878 142.639 101.408 142.89 101.068 143.241C100.731 143.601 100.502 144.017 100.38 144.488C100.264 144.936 100.211 145.393 100.219 145.86L100.018 145.075C99.9653 144.868 99.8941 144.633 99.8046 144.37C99.7152 144.106 99.635 143.879 99.564 143.688L99.4615 143.417L98.0967 143.763L100.077 151.497L101.566 151.12L101 148.91C101.06 149.027 101.122 149.141 101.187 149.252C101.508 149.819 101.933 150.229 102.46 150.481C102.976 150.735 103.622 150.764 104.398 150.567C105.101 150.389 105.692 150.052 106.17 149.557C106.652 149.071 106.98 148.482 107.155 147.789C107.322 147.108 107.305 146.375 107.103 145.59C106.902 144.804 106.563 144.148 106.087 143.619C105.613 143.101 105.058 142.741 104.423 142.539ZM100.574 147.245C100.444 146.738 100.42 146.255 100.5 145.794C100.58 145.334 100.78 144.931 101.099 144.586C101.41 144.254 101.84 144.019 102.388 143.88C102.884 143.754 103.353 143.756 103.794 143.887C104.227 144.03 104.603 144.276 104.924 144.624C105.247 144.982 105.477 145.43 105.615 145.967C105.818 146.763 105.769 147.474 105.467 148.101C105.155 148.73 104.595 149.147 103.789 149.351C103.251 149.488 102.767 149.489 102.337 149.356C101.896 149.226 101.53 148.978 101.238 148.612C100.935 148.248 100.714 147.792 100.574 147.245ZM118.675 148.294L117.288 148.915L112.682 138.723L114.07 138.103L118.675 148.294ZM110.712 148.351L112.661 143.586L107.147 141.199L108.914 140.409L114.491 142.804L112.655 147.482L110.712 148.351ZM123.115 141.854L124.413 141.033L120.112 134.307L118.814 135.128L121.271 138.97C121.329 139.215 121.362 139.484 121.37 139.778C121.373 140.218 121.281 140.649 121.094 141.07C120.899 141.496 120.567 141.858 120.098 142.155L120.917 143.435C121.295 143.196 121.574 142.918 121.752 142.603C121.931 142.289 122.038 141.962 122.075 141.623C122.117 141.293 122.115 140.973 122.068 140.662C122.029 140.406 121.979 140.179 121.917 139.98L123.115 141.854ZM125.92 129.391C126.436 128.944 127.023 128.668 127.682 128.563C128.341 128.458 129 128.53 129.657 128.779C130.321 129.036 130.921 129.469 131.454 130.079C131.988 130.689 132.334 131.336 132.491 132.018C132.648 132.715 132.62 133.388 132.409 134.037C132.204 134.694 131.828 135.26 131.279 135.735C130.675 136.258 130.084 136.523 129.508 136.528C128.923 136.541 128.359 136.366 127.816 136.004C127.708 135.935 127.601 135.861 127.495 135.783L128.997 137.5L127.836 138.505L122.578 132.497L123.642 131.575L123.856 131.771C124.006 131.91 124.18 132.076 124.379 132.271C124.578 132.466 124.747 132.643 124.888 132.804L125.421 133.414C125.203 133.001 125.045 132.57 124.947 132.118C124.843 131.643 124.861 131.169 124.999 130.696C125.145 130.231 125.452 129.796 125.92 129.391ZM125.643 133.229C125.778 133.676 126.018 134.095 126.362 134.488L126.363 134.49L126.364 134.491C126.736 134.916 127.139 135.222 127.573 135.41C127.999 135.606 128.438 135.662 128.891 135.581C129.336 135.506 129.768 135.287 130.187 134.924C130.816 134.379 131.128 133.756 131.124 133.054C131.111 132.359 130.834 131.703 130.293 131.085C129.928 130.668 129.52 130.372 129.07 130.197C128.627 130.031 128.179 129.981 127.727 130.048C127.275 130.13 126.855 130.338 126.468 130.673C126.04 131.043 125.762 131.447 125.634 131.883C125.504 132.334 125.507 132.783 125.643 133.229ZM144.362 119.811L145.259 118.565L138.757 113.931L137.86 115.178L141.743 117.945C141.917 118.166 142.053 118.406 142.149 118.667C142.304 119.092 142.357 119.529 142.309 119.979C142.261 120.429 142.096 120.849 141.816 121.239C141.454 121.741 141.056 122.02 140.621 122.077C140.188 122.149 139.716 122.002 139.203 121.636L135.242 118.814L134.354 120.047L138.55 123.038C138.619 123.16 138.679 123.287 138.728 123.419C138.882 123.844 138.935 124.281 138.887 124.732C138.839 125.182 138.675 125.602 138.394 125.991C138.033 126.493 137.634 126.773 137.199 126.829C136.767 126.901 136.294 126.754 135.782 126.389L131.82 123.566L130.932 124.799L135.167 127.817C135.549 128.09 135.932 128.271 136.314 128.36C136.699 128.464 137.067 128.483 137.416 128.418C137.774 128.359 138.111 128.219 138.427 127.999C138.743 127.779 139.032 127.487 139.294 127.124C139.537 126.786 139.704 126.427 139.794 126.046C139.893 125.671 139.911 125.291 139.847 124.905C139.792 124.525 139.67 124.156 139.48 123.798C139.415 123.679 139.342 123.563 139.261 123.45C139.419 123.518 139.578 123.571 139.736 123.607C140.121 123.712 140.488 123.731 140.838 123.666C141.196 123.606 141.533 123.467 141.849 123.247C142.165 123.027 142.454 122.735 142.716 122.371C142.965 122.025 143.135 121.661 143.225 121.28C143.324 120.906 143.342 120.525 143.278 120.139C143.217 119.768 143.091 119.404 142.902 119.046C142.797 118.859 142.675 118.68 142.535 118.51L144.362 119.811ZM142.132 111.763L141.567 113.105C141.118 112.825 140.763 112.458 140.503 112.003C140.244 111.548 140.102 111.033 140.078 110.457C140.054 109.88 140.179 109.268 140.452 108.619C140.774 107.852 141.224 107.237 141.802 106.772C142.379 106.308 143.025 106.022 143.741 105.916C144.457 105.81 145.194 105.914 145.953 106.23C146.721 106.55 147.32 106.996 147.75 107.568C148.191 108.144 148.449 108.795 148.526 109.52C148.603 110.246 148.482 110.987 148.163 111.744C147.828 112.54 147.389 113.143 146.847 113.553C146.304 113.962 145.669 114.166 144.941 114.163C144.219 114.174 143.41 113.964 142.515 113.534L145.053 107.502C144.589 107.367 144.139 107.335 143.704 107.408C143.264 107.491 142.869 107.673 142.519 107.955C142.165 108.246 141.887 108.633 141.684 109.115C141.456 109.656 141.389 110.159 141.482 110.625C141.575 111.092 141.792 111.471 142.132 111.763ZM146.946 111.254C147.215 110.615 147.266 110.012 147.099 109.446C146.942 108.884 146.612 108.417 146.109 108.046L144.204 112.573C144.821 112.784 145.37 112.759 145.85 112.496C146.341 112.238 146.706 111.824 146.946 111.254ZM151.138 102.081L151.524 100.594L143.792 98.6032L143.406 100.09L147.822 101.227C148.032 101.367 148.239 101.541 148.446 101.751C148.748 102.071 148.975 102.449 149.126 102.884C149.275 103.33 149.279 103.822 149.14 104.358L150.612 104.737C150.725 104.304 150.739 103.911 150.654 103.559C150.569 103.206 150.425 102.894 150.22 102.621C150.026 102.351 149.805 102.118 149.559 101.922C149.356 101.761 149.164 101.629 148.984 101.526L151.138 102.081ZM152.987 86.9728L152.902 88.5225L153.414 88.55C154.053 88.5844 154.569 88.7243 154.961 88.9698C155.353 89.2259 155.628 89.5718 155.786 90.0076C155.955 90.4439 156.024 90.9444 155.993 91.5089L155.937 92.5314L154.531 92.4557L154.578 91.593C154.604 91.3166 154.58 91.0643 154.507 90.8361C154.445 90.6084 154.316 90.4252 154.12 90.2865C153.924 90.1585 153.635 90.0841 153.251 90.0635L152.82 90.0403L152.703 92.1971L151.393 92.1266L151.51 89.9698L144.895 89.614L144.978 88.0962L151.592 88.4521L151.677 86.9024L152.987 86.9728ZM18.1828 78.1677C17.8312 78.8604 17.5992 79.7425 17.4867 80.8139L17.0522 84.9512L27.3806 86.0247L27.815 81.8874C27.9231 80.8584 27.8771 79.9689 27.677 79.2189C27.4663 78.4677 27.1403 77.844 26.699 77.3477C26.2589 76.8409 25.7364 76.4541 25.1316 76.1875C24.528 75.9103 23.8866 75.7364 23.2076 75.6658C22.518 75.5941 21.8555 75.6218 21.2201 75.7488C20.5847 75.8757 20.0049 76.1372 19.4807 76.5331C18.9576 76.9185 18.5249 77.4633 18.1828 78.1677ZM26.4288 81.7594L26.1565 84.3532L18.5972 83.5675L18.8696 80.9738C18.9553 80.1569 19.1322 79.4943 19.4 78.9859C19.6573 78.4765 19.9825 78.0867 20.3755 77.8165C20.759 77.5347 21.1803 77.3532 21.6393 77.2723C22.0993 77.1807 22.5681 77.1597 23.0455 77.2093C23.5123 77.2578 23.9666 77.3747 24.4083 77.5601C24.8512 77.7348 25.2416 78.0006 25.5795 78.3574C25.9079 78.7025 26.1557 79.1519 26.3228 79.7055C26.4792 80.2579 26.5146 80.9426 26.4288 81.7594ZM20.3079 69.0792L18.7135 68.6623L18.2271 70.5031L19.8215 70.9201L20.3079 69.0792ZM21.8532 69.6818L21.4649 71.1514L29.1891 73.1714L29.5774 71.7019L21.8532 69.6818ZM27.776 68.1481L28.2927 66.8383C28.7097 66.9438 29.108 66.8932 29.4877 66.6865C29.8574 66.4759 30.1519 66.0927 30.3711 65.5371C30.512 65.1799 30.5818 64.8865 30.5806 64.657C30.5695 64.4237 30.505 64.2382 30.3873 64.1006C30.2735 63.9531 30.1272 63.8445 29.9483 63.7746C29.7198 63.6854 29.5224 63.6771 29.3562 63.7496C29.1801 63.8182 29.0092 63.9462 28.8436 64.1334C28.6681 64.3168 28.4818 64.5418 28.2849 64.8085C28.0663 65.101 27.8329 65.3877 27.5845 65.6686C27.3361 65.9495 27.0726 66.1959 26.7941 66.4078C26.5195 66.6098 26.2247 66.7466 25.9098 66.8183C25.5888 66.8762 25.2445 66.8334 24.8769 66.6898C24.5689 66.5696 24.3062 66.3926 24.0888 66.1588C23.8753 65.9152 23.7231 65.6325 23.6321 65.3107C23.5352 64.9751 23.5035 64.6193 23.5373 64.2431C23.561 63.8631 23.6532 63.4696 23.8136 63.0628C24.0367 62.4972 24.3289 62.0616 24.6902 61.7561C25.0416 61.4467 25.4402 61.2646 25.8862 61.2097C26.336 61.1448 26.8013 61.2005 27.2822 61.3768L26.789 62.6271C26.3443 62.5336 25.9845 62.5592 25.7096 62.7038C25.4248 62.8445 25.1963 63.1331 25.024 63.5697C24.8557 63.9964 24.811 64.3568 24.8899 64.651C24.9688 64.9451 25.1524 65.1485 25.4405 65.261C25.6591 65.3463 25.8693 65.3368 26.071 65.2323C26.2628 65.124 26.4612 64.9553 26.6662 64.7261C26.8713 64.497 27.095 64.2351 27.3374 63.9404C27.5719 63.6656 27.8056 63.4075 28.0383 63.1663C28.265 62.9113 28.5029 62.7008 28.7519 62.5346C28.9949 62.3546 29.266 62.2487 29.5653 62.2167C29.8585 62.1708 30.184 62.2178 30.5417 62.3574C30.9789 62.5281 31.3184 62.7866 31.5602 63.1329C31.7921 63.4754 31.9152 63.8899 31.9297 64.3764C31.9481 64.8531 31.8418 65.3841 31.6109 65.9696C31.3995 66.5054 31.1549 66.9366 30.877 67.2633C30.603 67.58 30.3108 67.8266 30.0004 68.0031C29.6938 68.1697 29.3989 68.2778 29.1156 68.3275C28.8262 68.3634 28.5625 68.3635 28.3243 68.3278C28.0901 68.2821 27.9073 68.2222 27.776 68.1481ZM36.124 53.8667C35.8902 53.3045 35.5061 52.8264 34.9715 52.4323L34.2602 53.6102C34.6793 54.0719 34.9204 54.5702 34.9837 55.1051C35.047 55.6399 34.9022 56.1996 34.5494 56.784C34.2902 57.2132 33.9616 57.5511 33.5634 57.7978C33.1561 58.039 32.7078 58.1624 32.2184 58.1682C31.7253 58.1593 31.2224 58.0017 30.7097 57.6952C30.1786 57.3778 29.798 57.0074 29.5677 56.584C29.3337 56.146 29.2282 55.6915 29.2509 55.2204C29.2792 54.7403 29.4201 54.2902 29.6737 53.8701C29.9825 53.3588 30.4019 52.9943 30.932 52.7768C31.4584 52.5447 32.0157 52.4987 32.6039 52.639L33.3234 51.4473C32.7171 51.172 32.1188 51.0692 31.5285 51.1389C30.929 51.2031 30.3733 51.4115 29.8613 51.7641C29.3493 52.1168 28.9114 52.5944 28.5475 53.1971C28.145 53.8636 27.9176 54.5602 27.8651 55.2869C27.8126 56.0135 27.9545 56.7072 28.2907 57.3679C28.6232 58.014 29.1649 58.5614 29.9157 59.0101C30.6574 59.4534 31.3976 59.672 32.1362 59.6662C32.8713 59.6457 33.5489 59.4418 34.1691 59.0544C34.7801 58.6615 35.2868 58.1318 35.6893 57.4652C36.0532 56.8626 36.2741 56.2491 36.3521 55.6246C36.4301 55.0002 36.354 54.4142 36.124 53.8667ZM41.8935 48.7935C41.3764 49.3757 40.7777 49.8009 40.0973 50.0692C39.4169 50.3374 38.7169 50.4108 37.9972 50.2895C37.2775 50.1682 36.5932 49.8224 35.9443 49.252C35.2873 48.6745 34.854 48.038 34.6443 47.3424C34.4266 46.6398 34.4096 45.9361 34.5932 45.2313C34.7769 44.5265 35.1273 43.8829 35.6443 43.3007C36.1614 42.7185 36.7566 42.2972 37.4299 42.037C38.1032 41.7768 38.8037 41.7108 39.5314 41.8392C40.251 41.9605 40.9394 42.3099 41.5963 42.8873C42.2453 43.4577 42.6746 44.0907 42.8843 44.7863C43.094 45.4818 43.1105 46.178 42.9339 46.8749C42.7573 47.5717 42.4105 48.2113 41.8935 48.7935ZM40.896 47.9168C41.2147 47.5578 41.4286 47.1564 41.5375 46.7125C41.6455 46.2536 41.6247 45.7951 41.4751 45.337C41.3246 44.8639 41.0251 44.4302 40.5764 44.0358C40.1197 43.6344 39.6462 43.3886 39.1557 43.2983C38.6723 43.2001 38.2084 43.2326 37.7639 43.3957C37.3266 43.5509 36.9485 43.808 36.6298 44.1669C36.3111 44.5258 36.0977 44.9347 35.9897 45.3937C35.8737 45.8456 35.891 46.308 36.0415 46.7811C36.1919 47.2542 36.4995 47.695 36.9642 48.1034C37.4129 48.4978 37.8789 48.7441 38.3623 48.8423C38.8447 48.9256 39.3082 48.8856 39.7526 48.7224C40.1891 48.5522 40.5702 48.2836 40.896 47.9168ZM47.8864 40.1536L45.8826 33.9058L47.1867 32.8723L49.6063 41.1418L48.4777 42.0362L40.942 37.8213L42.2586 36.7778L47.8864 40.1536ZM58.3494 32.3965L59.6232 31.6913C59.8037 32.1888 59.8555 32.6965 59.7786 33.2146C59.7017 33.7327 59.4945 34.2253 59.157 34.6926C58.8195 35.1599 58.3428 35.564 57.7268 35.9049C56.9989 36.3079 56.2645 36.5134 55.5234 36.5213C54.7823 36.5292 54.0974 36.3536 53.4688 35.9945C52.8402 35.6354 52.3254 35.0974 51.9245 34.3806C51.5183 33.6544 51.3229 32.9336 51.3382 32.218C51.3483 31.4931 51.5473 30.822 51.9354 30.2048C52.3235 29.5876 52.8769 29.0801 53.5954 28.6823C54.3513 28.2639 55.0692 28.0615 55.7491 28.0753C56.429 28.089 57.0543 28.322 57.6249 28.7742C58.1997 29.2119 58.7059 29.8765 59.1435 30.7681L53.4183 33.9376C53.6993 34.3307 54.0335 34.6334 54.4211 34.8455C54.818 35.0525 55.2411 35.1535 55.6905 35.1486C56.1493 35.1385 56.6073 35.0068 57.0646 34.7537C57.5778 34.4695 57.942 34.1155 58.1571 33.6916C58.3723 33.2677 58.4363 32.836 58.3494 32.3965ZM54.2499 29.8196C53.6433 30.1555 53.2305 30.5974 53.0115 31.1453C52.7872 31.684 52.7582 32.2548 52.9243 32.8578L57.2217 30.4787C56.8668 29.9315 56.4193 29.6123 55.8794 29.521C55.3343 29.4205 54.7911 29.52 54.2499 29.8196ZM61.553 25.0647L60.1181 25.6126L62.9918 33.0615L64.4267 32.5136L62.7852 28.2587C62.7774 28.0072 62.7987 27.7366 62.8494 27.447C62.9342 27.015 63.11 26.6111 63.3765 26.2352C63.6531 25.8556 64.0505 25.5668 64.5687 25.369L64.0216 23.9509C63.603 24.1107 63.275 24.3273 63.0375 24.6006C62.8 24.874 62.6296 25.1732 62.5262 25.4981C62.4191 25.813 62.3575 26.1277 62.3416 26.442C62.3285 26.7005 62.3325 26.9331 62.3536 27.1399L61.553 25.0647ZM72.2908 21.7378L74.0912 21.4457L73.7495 19.3615L75.2499 19.118L75.5916 21.2022L77.3921 20.91L77.6069 22.2205L75.8065 22.5127L76.8833 29.081L75.383 29.3245L74.3061 22.7562L72.5057 23.0483L72.2908 21.7378ZM86.8533 23.5023L86.928 28.3177L88.4478 28.2944L88.3661 23.031C88.359 22.5724 88.2834 22.1682 88.1393 21.8184C87.995 21.4579 87.7877 21.157 87.5172 20.9158C87.2573 20.6638 86.9451 20.4819 86.5806 20.3701C86.216 20.2477 85.8097 20.19 85.3618 20.1969C84.9352 20.2034 84.5417 20.2841 84.1814 20.439C83.8211 20.5939 83.5044 20.8068 83.2312 21.0777C82.9687 21.3484 82.7496 21.6665 82.5739 22.0319C82.4854 22.2278 82.4139 22.4312 82.3594 22.6419L82.275 17.2039L80.7551 17.2273L80.9287 28.4099L82.4485 28.3866L82.3748 23.6347C82.449 23.3635 82.5624 23.1113 82.7151 22.8778C82.9546 22.5008 83.2647 22.2026 83.6453 21.9834C84.0365 21.7534 84.4667 21.6348 84.9359 21.6276C85.3626 21.621 85.7157 21.6903 85.9953 21.8353C86.2747 21.9697 86.486 22.1745 86.6289 22.4496C86.7719 22.7248 86.8466 23.0757 86.8533 23.5023ZM95.4877 29.2119C94.7205 29.0784 94.0451 28.793 93.4613 28.3558C92.8775 27.9185 92.4501 27.3623 92.1789 26.6872C91.9077 26.012 91.8469 25.249 91.9966 24.398C92.148 23.5366 92.4665 22.8341 92.9519 22.2906C93.4392 21.7366 94.032 21.3526 94.7303 21.1385C95.4286 20.9244 96.1613 20.884 96.9284 21.0176C97.6956 21.1511 98.3658 21.4355 98.939 21.8709C99.5123 22.3063 99.9336 22.8669 100.203 23.5525C100.474 24.2277 100.534 24.996 100.383 25.8574C100.233 26.7084 99.9154 27.4056 99.4299 27.9491C98.9445 28.4926 98.3578 28.8723 97.6701 29.0882C96.9823 29.3041 96.2548 29.3454 95.4877 29.2119ZM95.7176 27.9039C96.1905 27.9862 96.6451 27.9571 97.0814 27.8165C97.53 27.6672 97.9112 27.4087 98.225 27.041C98.551 26.6647 98.7658 26.1824 98.8693 25.5941C98.9745 24.9953 98.938 24.4638 98.7597 23.9997C98.5919 23.5374 98.3224 23.1603 97.9514 22.8683C97.5909 22.5782 97.1741 22.392 96.7012 22.3097C96.2284 22.2274 95.7676 22.2609 95.319 22.4102C94.8722 22.549 94.4857 22.8066 94.1596 23.1829C93.8336 23.5592 93.6169 24.052 93.5098 24.6614C93.4064 25.2497 93.4386 25.775 93.6064 26.2373C93.7865 26.6909 94.0621 27.0636 94.4332 27.3556C94.8061 27.637 95.2342 27.8198 95.7176 27.9039ZM107.939 32.4067L109.365 32.933L112.154 25.4521L110.728 24.9258L109.124 29.2285C108.97 29.4371 108.781 29.64 108.556 29.8373C108.221 30.1232 107.826 30.3297 107.368 30.4566C106.925 30.5772 106.443 30.5415 105.923 30.3494C105.583 30.2239 105.298 30.0563 105.069 29.8466C104.839 29.6369 104.698 29.3745 104.645 29.0592C104.602 28.7477 104.666 28.362 104.837 27.9023L106.525 23.3748L105.084 22.843L103.285 27.6703C103.08 28.22 102.993 28.7112 103.025 29.1437C103.061 29.5663 103.18 29.9343 103.382 30.2476C103.584 30.5608 103.834 30.8234 104.13 31.0352C104.437 31.2507 104.75 31.4176 105.071 31.5358C105.541 31.7093 105.975 31.7671 106.372 31.7091C106.769 31.651 107.125 31.5209 107.44 31.3186C107.764 31.12 108.042 30.8929 108.274 30.6374C108.516 30.3856 108.709 30.144 108.852 29.9126L108.892 29.8522L107.939 32.4067ZM113.361 31.8351L114.583 32.5351C114.415 32.9309 114.405 33.331 114.553 33.7354C114.707 34.1306 115.043 34.4766 115.561 34.7736C115.894 34.9645 116.175 35.0761 116.402 35.1083C116.636 35.1313 116.829 35.0947 116.983 34.9987C117.147 34.9079 117.277 34.7795 117.373 34.6133C117.496 34.401 117.534 34.2076 117.487 34.0332C117.445 33.8496 117.344 33.6625 117.183 33.472C117.028 33.2722 116.833 33.0559 116.598 32.8229C116.34 32.5649 116.091 32.2929 115.85 32.0072C115.608 31.7214 115.404 31.4258 115.235 31.1204C115.076 30.8203 114.985 30.5097 114.961 30.1888C114.952 29.8639 115.046 29.5307 115.244 29.1891C115.41 28.903 115.625 28.6697 115.889 28.4894C116.163 28.3144 116.467 28.2055 116.8 28.1627C117.147 28.1159 117.505 28.1366 117.873 28.2245C118.247 28.3033 118.623 28.4514 119.002 28.6688C119.53 28.9711 119.918 29.3226 120.167 29.7232C120.421 30.1147 120.542 30.5342 120.529 30.9818C120.526 31.4348 120.4 31.8854 120.153 32.3338L118.987 31.6657C119.147 31.2408 119.175 30.8824 119.073 30.5903C118.977 30.289 118.725 30.0217 118.317 29.7884C117.919 29.5603 117.569 29.4638 117.265 29.4988C116.961 29.5337 116.732 29.6851 116.577 29.9528C116.459 30.1559 116.437 30.3645 116.51 30.5785C116.589 30.7834 116.726 31.0036 116.923 31.2391C117.119 31.4746 117.346 31.7332 117.601 32.0151C117.839 32.2863 118.06 32.5542 118.264 32.8188C118.483 33.0794 118.656 33.3446 118.783 33.6143C118.925 33.88 118.99 34.1627 118.976 34.4625C118.978 34.7583 118.882 35.0723 118.69 35.4046C118.455 35.8108 118.147 36.1079 117.767 36.2959C117.392 36.4746 116.963 36.5357 116.478 36.4791C116.002 36.4279 115.491 36.2458 114.945 35.9329C114.445 35.6466 114.054 35.3426 113.772 35.0211C113.499 34.7049 113.299 34.3809 113.17 34.0492C113.051 33.7227 112.988 33.4162 112.981 33.1297C112.989 32.8392 113.029 32.5791 113.1 32.3495C113.181 32.1252 113.268 31.9538 113.361 31.8351ZM121.262 39.2192C121.473 39.849 121.843 40.3808 122.37 40.8145C122.848 41.2075 123.329 41.4377 123.814 41.5051C124.306 41.5643 124.778 41.5043 125.232 41.3253C125.664 41.1549 126.067 40.9292 126.44 40.6481L125.922 41.2712C125.786 41.4353 125.637 41.6307 125.476 41.8576C125.316 42.0844 125.179 42.2825 125.066 42.452L124.906 42.6938L125.994 43.5882L131.097 37.4479L129.911 36.4721L128.452 38.2266C128.512 38.1097 128.568 37.9927 128.619 37.8755C128.89 37.2831 128.971 36.701 128.864 36.1292C128.765 35.5643 128.406 35.0277 127.789 34.5195C127.228 34.0587 126.606 33.7815 125.921 33.6877C125.243 33.5857 124.571 33.6683 123.905 33.9355C123.254 34.2012 122.67 34.6458 122.152 35.2693C121.634 35.8928 121.301 36.5515 121.154 37.2456C121.014 37.9315 121.05 38.5893 121.262 39.2192ZM127.356 39.5454C127.716 39.1116 127.954 38.6668 128.07 38.2109C128.195 37.7608 128.179 37.3202 128.025 36.889C127.878 36.4646 127.591 36.0762 127.162 35.7238C126.52 35.1953 125.851 34.9904 125.156 35.1092C124.469 35.2348 123.863 35.6134 123.338 36.2451C122.983 36.6717 122.756 37.1202 122.657 37.5906C122.564 38.0528 122.587 38.5003 122.727 38.9329C122.882 39.3641 123.157 39.7423 123.552 40.0676C123.989 40.4267 124.434 40.6339 124.887 40.6892C125.356 40.743 125.8 40.6668 126.221 40.4607C126.641 40.255 127.018 39.9519 127.351 39.5514L127.354 39.5485L127.356 39.5454ZM134.29 40.3699L135.281 41.544L133.559 42.9816C133.759 42.8893 133.964 42.8158 134.172 42.7611C134.568 42.6673 134.954 42.6369 135.33 42.6698C135.722 42.7041 136.088 42.8154 136.428 43.0037C136.777 43.1853 137.088 43.4391 137.364 43.7652C137.652 44.1077 137.865 44.4585 138 44.8178C138.136 45.1771 138.188 45.5366 138.156 45.8963C138.133 46.2492 138.023 46.5983 137.826 46.9436C137.643 47.2901 137.372 47.6138 137.012 47.9146L133.02 51.2471L132.04 50.0852L135.774 46.968C136.257 46.5647 136.518 46.1457 136.556 45.711C136.609 45.2776 136.436 44.8245 136.037 44.3516C135.728 43.9846 135.36 43.7221 134.933 43.564C134.507 43.4059 134.068 43.3486 133.616 43.3922C133.338 43.4208 133.07 43.4916 132.812 43.6048L129.152 46.6607L128.161 45.4865L134.29 40.3699ZM136.028 54.7902C136.001 55.4543 136.159 56.0877 136.502 56.6903C136.808 57.228 137.175 57.6148 137.604 57.8507C138.042 58.0814 138.505 58.194 138.993 58.1886C139.457 58.1834 139.914 58.116 140.363 57.9865L139.657 58.3841C139.443 58.5045 139.193 58.6577 138.906 58.8438C138.624 59.0391 138.389 59.2083 138.2 59.3512L138.897 60.575L148.641 55.0863L147.882 53.7513L143.086 56.4525C143.446 56.1374 143.729 55.7942 143.936 55.4228C144.155 55.0304 144.254 54.6011 144.234 54.1348C144.214 53.6685 144.049 53.1619 143.737 52.615C143.379 51.9846 142.904 51.5173 142.314 51.2132C141.733 50.9039 141.089 50.7646 140.382 50.7953C139.685 50.8208 138.983 51.0325 138.277 51.4304C137.57 51.8282 137.022 52.3206 136.632 52.9076C136.257 53.4986 136.055 54.1261 136.028 54.7902ZM141.608 57.2848C141.153 57.5413 140.692 57.6908 140.225 57.7333C139.758 57.7758 139.316 57.6884 138.898 57.471C138.494 57.2577 138.152 56.9053 137.873 56.414C137.62 55.969 137.498 55.5174 137.507 55.0592C137.531 54.6051 137.668 54.1786 137.92 53.7798C138.181 53.3757 138.553 53.0375 139.036 52.7653C139.752 52.3623 140.453 52.2245 141.139 52.3521C141.831 52.4891 142.382 52.9191 142.794 53.6422C143.068 54.1242 143.198 54.5897 143.184 55.0386C143.174 55.4968 143.031 55.914 142.754 56.2903C142.483 56.6758 142.101 57.0073 141.608 57.2848ZM142.51 62.0007L142.992 63.3236C142.609 63.5185 142.343 63.8183 142.195 64.223C142.058 64.6242 142.091 65.1054 142.296 65.6666C142.427 66.0274 142.569 66.2936 142.723 66.4651C142.886 66.633 143.058 66.7299 143.237 66.7558C143.421 66.7917 143.603 66.7771 143.783 66.712C144.014 66.6288 144.168 66.5053 144.244 66.3416C144.331 66.1743 144.374 65.966 144.374 65.7165C144.384 65.4635 144.375 65.1721 144.345 64.8425C144.315 64.4792 144.3 64.1105 144.3 63.7363C144.3 63.3622 144.334 63.004 144.402 62.6619C144.474 62.3298 144.605 62.0333 144.794 61.7725C144.996 61.5181 145.283 61.3239 145.654 61.19C145.965 61.0779 146.28 61.0381 146.598 61.0707C146.92 61.1133 147.222 61.2255 147.504 61.4074C147.8 61.5956 148.06 61.842 148.284 62.1466C148.519 62.4475 148.711 62.8035 148.861 63.2144C149.069 63.7857 149.139 64.3047 149.07 64.7716C149.012 65.2348 148.834 65.6336 148.536 65.9679C148.241 66.3122 147.855 66.5762 147.377 66.7599L146.917 65.4971C147.313 65.275 147.566 65.0193 147.676 64.7301C147.796 64.4372 147.776 64.0703 147.616 63.6293C147.459 63.1984 147.253 62.8984 146.998 62.7294C146.744 62.5604 146.471 62.5283 146.18 62.6333C145.959 62.7129 145.808 62.8582 145.726 63.0692C145.654 63.2766 145.617 63.5336 145.615 63.8404C145.613 64.1472 145.619 64.4909 145.633 64.8714C145.639 65.232 145.635 65.5792 145.621 65.9133C145.62 66.2538 145.581 66.5682 145.505 66.8566C145.442 67.1514 145.309 67.4092 145.105 67.63C144.916 67.8571 144.64 68.0358 144.279 68.166C143.837 68.3252 143.411 68.3543 143 68.2532C142.598 68.1485 142.23 67.9182 141.896 67.5624C141.566 67.2166 141.293 66.7481 141.078 66.1567C140.881 65.6155 140.778 65.131 140.77 64.7031C140.765 64.2852 140.821 63.908 140.936 63.5715C141.056 63.2449 141.205 62.9699 141.385 62.7464C141.578 62.5292 141.776 62.3558 141.979 62.2261C142.185 62.1064 142.362 62.0313 142.51 62.0007ZM144.715 77.7969C144.449 78.4762 144.354 79.2034 144.429 79.9784C144.504 80.7534 144.737 81.4436 145.129 82.0489C145.52 82.6542 146.042 83.1184 146.695 83.4413C147.348 83.7643 148.104 83.8844 148.964 83.8016C149.835 83.7179 150.559 83.4553 151.138 83.0138C151.727 82.5714 152.156 82.0158 152.423 81.3472C152.69 80.6785 152.786 79.9566 152.711 79.1816C152.635 78.4066 152.402 77.7111 152.01 77.0952C151.618 76.4792 151.09 76.0103 150.426 75.6884C149.773 75.3654 149.011 75.2458 148.141 75.3296C147.281 75.4123 146.561 75.6744 145.983 76.1158C145.404 76.5573 144.981 77.1176 144.715 77.7969ZM146.198 81.1423C145.946 80.7593 145.797 80.3289 145.751 79.8512C145.703 79.3628 145.766 78.9014 145.938 78.4669C146.121 78.0314 146.407 77.6664 146.796 77.3717C147.197 77.0867 147.695 76.9156 148.289 76.8584C148.905 76.7991 149.438 76.8765 149.887 77.0904C150.337 77.3044 150.688 77.6081 150.94 78.0018C151.204 78.3943 151.358 78.8295 151.405 79.3073C151.451 79.785 151.383 80.2363 151.199 80.6612C151.016 81.0967 150.724 81.457 150.323 81.742C149.923 82.0377 149.421 82.2146 148.816 82.2729C148.221 82.33 147.699 82.2517 147.249 82.0377C146.812 81.8334 146.461 81.5349 146.198 81.1423ZM72.6002 145.955L71.1719 145.673C71.3579 145.177 71.6487 144.756 72.0441 144.41C72.4394 144.064 72.9175 143.821 73.4783 143.682C74.0391 143.543 74.6648 143.542 75.3555 143.678C76.1717 143.839 76.8645 144.156 77.4339 144.627C78.0033 145.098 78.4105 145.674 78.6556 146.353C78.9007 147.032 78.9428 147.774 78.782 148.579C78.6191 149.395 78.2991 150.071 77.8222 150.608C77.3432 151.155 76.7553 151.539 76.0585 151.76C75.3617 151.981 74.6104 152.012 73.8047 151.852C72.9571 151.685 72.2789 151.377 71.7702 150.928C71.2616 150.48 70.937 149.899 70.7965 149.187C70.6435 148.482 70.6902 147.649 70.9368 146.686L77.3566 147.955C77.3983 147.474 77.3406 147.028 77.1835 146.616C77.0159 146.203 76.7594 145.853 76.414 145.567C76.0582 145.279 75.6239 145.085 75.1111 144.983C74.5356 144.87 74.0281 144.905 73.5887 145.09C73.1493 145.275 72.8198 145.563 72.6002 145.955ZM74.0459 150.563C74.7261 150.697 75.3277 150.626 75.8508 150.349C76.3718 150.082 76.765 149.665 77.0306 149.098L72.2118 148.145C72.1263 148.792 72.2593 149.323 72.6111 149.741C72.9607 150.169 73.439 150.443 74.0459 150.563ZM60.4403 147.696L62.1053 148.441L62.6522 147.231L60.9872 146.486L63.7282 140.421L62.3407 139.8L59.5997 145.866L57.9346 145.121L57.3877 146.331L59.0528 147.076L58.183 149L59.5705 149.621L60.4403 147.696ZM55.4839 135.992C56.1388 136.413 56.6497 136.939 57.0167 137.568C57.3838 138.197 57.5602 138.875 57.546 139.602C57.5318 140.328 57.2892 141.054 56.8184 141.778C56.3417 142.511 55.7734 143.033 55.1133 143.344C54.4474 143.664 53.7507 143.787 53.0233 143.712C52.2959 143.637 51.6047 143.389 50.9499 142.968C50.295 142.547 49.7886 142.024 49.4305 141.401C49.0725 140.777 48.9035 140.098 48.9235 139.362C48.9377 138.636 49.1831 137.906 49.6598 137.173C50.1306 136.448 50.6961 135.931 51.3562 135.62C52.0163 135.309 52.7055 135.188 53.424 135.257C54.1424 135.326 54.8291 135.571 55.4839 135.992ZM54.7602 137.106C54.3565 136.846 53.9261 136.696 53.469 136.655C52.9971 136.618 52.5446 136.708 52.1115 136.924C51.6637 137.143 51.2771 137.503 50.9515 138.004C50.6202 138.514 50.4459 139.017 50.4287 139.513C50.4025 140.003 50.5033 140.455 50.7311 140.868C50.9499 141.275 51.2612 141.608 51.6649 141.868C52.0685 142.128 52.5063 142.276 52.9783 142.313C53.4444 142.36 53.9014 142.273 54.3492 142.054C54.797 141.835 55.1895 141.466 55.5266 140.947C55.8521 140.446 56.028 139.95 56.0542 139.46C56.0656 138.973 55.9574 138.523 55.7296 138.11C55.496 137.706 55.1729 137.371 54.7602 137.106ZM40.9824 139.518L42.1019 140.546L49.7089 132.347L48.5894 131.319L40.9824 139.518ZM44.0867 133.199L38.9165 133.276L40.4838 134.715L45.5295 134.57L45.549 128.527L44.123 127.218L44.0867 133.199ZM36.7398 122.406L35.8464 121.256C36.3131 121.005 36.8094 120.879 37.3355 120.878C37.8616 120.877 38.3823 121.008 38.8974 121.271C39.4126 121.535 39.8862 121.944 40.3181 122.5C40.8286 123.157 41.1439 123.85 41.2641 124.578C41.3843 125.306 41.3138 126.007 41.0524 126.679C40.7911 127.351 40.3349 127.937 39.6838 128.438C39.0243 128.945 38.3381 129.244 37.6252 129.335C36.9038 129.432 36.2073 129.335 35.5356 129.044C34.8639 128.754 34.276 128.284 33.7721 127.635C33.242 126.953 32.9322 126.276 32.8428 125.605C32.7534 124.934 32.89 124.284 33.2525 123.655C33.6 123.024 34.1833 122.428 35.0024 121.865L39.0176 127.033C39.3653 126.698 39.6152 126.324 39.7671 125.911C39.9125 125.49 39.9487 125.058 39.8757 124.617C39.7961 124.166 39.5959 123.735 39.2752 123.322C38.9153 122.859 38.5085 122.553 38.055 122.404C37.6015 122.255 37.163 122.255 36.7398 122.406ZM34.8023 126.823C35.2277 127.37 35.7291 127.711 36.3064 127.846C36.8753 127.987 37.4466 127.931 38.0201 127.679L35.0063 123.8C34.5167 124.23 34.2675 124.718 34.2587 125.263C34.2415 125.814 34.4227 126.334 34.8023 126.823ZM28.761 120.208L29.4758 121.567L36.5582 117.882L35.8435 116.522L31.6135 118.724C31.3375 118.779 31.0607 118.791 30.783 118.759C30.3327 118.705 29.9163 118.555 29.534 118.309C29.1516 118.063 28.8487 117.727 28.6254 117.302C28.3375 116.755 28.266 116.275 28.4108 115.863C28.5413 115.446 28.8857 115.093 29.4439 114.802L33.7587 112.557L33.0513 111.212L28.4385 113.612C28.0222 113.829 27.6879 114.087 27.4357 114.386C27.169 114.681 26.9865 114.999 26.888 115.339C26.78 115.684 26.7536 116.046 26.8089 116.426C26.8641 116.806 26.9959 117.194 27.2044 117.591C27.403 117.969 27.6528 118.283 27.9541 118.536C28.2459 118.793 28.5793 118.98 28.9544 119.097C29.315 119.21 29.6984 119.263 30.1045 119.256C30.3196 119.248 30.5351 119.22 30.7509 119.172L28.761 120.208ZM29.3139 109.338L28.8773 107.999C29.2668 107.818 29.5422 107.527 29.7036 107.127C29.8548 106.731 29.8378 106.249 29.6525 105.681C29.5334 105.316 29.4002 105.045 29.2528 104.869C29.0953 104.695 28.9272 104.593 28.7485 104.561C28.5665 104.519 28.3841 104.527 28.2014 104.586C27.9679 104.661 27.8101 104.78 27.728 104.941C27.6357 105.105 27.5854 105.312 27.577 105.561C27.5584 105.814 27.5581 106.105 27.5762 106.436C27.594 106.8 27.5965 107.169 27.5839 107.543C27.5713 107.917 27.525 108.274 27.445 108.613C27.3618 108.943 27.2214 109.235 27.0239 109.489C26.8129 109.736 26.5196 109.921 26.144 110.042C25.8293 110.144 25.5135 110.173 25.1964 110.129C24.876 110.076 24.578 109.954 24.3025 109.762C24.0135 109.564 23.762 109.309 23.548 108.997C23.3239 108.688 23.144 108.326 23.0083 107.91C22.8198 107.332 22.7676 106.811 22.8517 106.347C22.9257 105.886 23.1174 105.493 23.4269 105.169C23.733 104.835 24.128 104.584 24.6119 104.417L25.0287 105.694C24.6255 105.903 24.3639 106.15 24.2438 106.435C24.1136 106.724 24.1212 107.091 24.2668 107.538C24.4091 107.974 24.6045 108.281 24.8531 108.458C25.1018 108.636 25.3733 108.677 25.6677 108.582C25.891 108.51 26.0472 108.37 26.1364 108.161C26.2154 107.957 26.261 107.701 26.2732 107.394C26.2854 107.088 26.2911 106.744 26.2903 106.363C26.2961 106.003 26.3119 105.656 26.3378 105.322C26.3502 104.982 26.3996 104.669 26.4859 104.383C26.5588 104.091 26.7006 103.838 26.9114 103.624C27.1087 103.403 27.39 103.234 27.7555 103.116C28.2021 102.972 28.6293 102.957 29.037 103.072C29.4346 103.19 29.7943 103.433 30.1159 103.8C30.4342 104.156 30.691 104.634 30.8862 105.232C31.0648 105.78 31.151 106.268 31.1447 106.696C31.1352 107.113 31.0668 107.489 30.9397 107.821C30.8092 108.143 30.6504 108.413 30.4632 108.631C30.2626 108.841 30.0589 109.008 29.8522 109.131C29.6421 109.243 29.4627 109.312 29.3139 109.338ZM17.8991 99.8819L18.1823 101.359L25.8534 99.9033L25.5702 98.4262L17.8991 99.8819ZM28.6907 97.6223L27.0716 97.9296L27.4301 99.7995L29.0492 99.4923L28.6907 97.6223Z" fill="#111111"/>
<rect x="8" y="8" width="156" height="156" rx="78" stroke="white" stroke-width="16"/>
</svg>
