<svg width="162" height="34" viewBox="0 0 162 34" fill="none" xmlns="http://www.w3.org/2000/svg">
<path fill-rule="evenodd" clip-rule="evenodd" d="M3.56483 20.5355C1.61221 18.5829 1.61221 15.4171 3.56483 13.4645V13.4645C5.51745 11.5118 8.68328 11.5118 10.6359 13.4645L14.1714 17L10.6359 20.5355C8.68328 22.4882 5.51745 22.4882 3.56483 20.5355V20.5355ZM13.4643 23.364C11.5117 25.3166 11.5117 28.4824 13.4643 30.435V30.435C15.4169 32.3876 18.5828 32.3876 20.5354 30.435V30.435C22.488 28.4824 22.488 25.3166 20.5354 23.364L16.9999 19.8284L19.8283 17L23.3638 20.5355C25.3164 22.4882 28.4823 22.4882 30.4349 20.5355V20.5355C32.3875 18.5829 32.3875 15.4171 30.4349 13.4645V13.4645C28.4823 11.5118 25.3164 11.5118 23.3638 13.4645L19.8283 17L16.9999 14.1716L20.5354 10.636C22.488 8.68342 22.488 5.51759 20.5354 3.56497V3.56497C18.5828 1.61235 15.4169 1.61235 13.4643 3.56497V3.56497C11.5117 5.51759 11.5117 8.68342 13.4643 10.636L16.9999 14.1716L14.1714 17L16.9999 19.8284L13.4643 23.364Z" fill="#111111"/>
<path d="M54.736 16.184V16.024C55.696 16.088 56.5813 16.216 57.392 16.408C58.2027 16.6 58.9067 16.8987 59.504 17.304C60.1013 17.7093 60.56 18.2427 60.88 18.904C61.2213 19.544 61.392 20.344 61.392 21.304C61.392 22.4347 61.0933 23.4587 60.496 24.376C59.8987 25.2933 59.056 26.0187 57.968 26.552C56.9013 27.0853 55.6427 27.352 54.192 27.352C52.8053 27.352 51.568 27.0747 50.48 26.52C49.392 25.9653 48.5493 25.2293 47.952 24.312C47.3547 23.3733 47.1093 22.3173 47.216 21.144H50.032C50.0533 21.8053 50.2453 22.4027 50.608 22.936C50.9707 23.448 51.472 23.8533 52.112 24.152C52.752 24.4293 53.4453 24.568 54.192 24.568C55.4507 24.568 56.432 24.2587 57.136 23.64C57.84 23.0213 58.192 22.1467 58.192 21.016C58.192 19.928 57.7973 19.064 57.008 18.424C56.2187 17.7627 55.12 17.432 53.712 17.432H51.568V15.096H53.712C54.6507 15.096 55.4293 14.9573 56.048 14.68C56.6667 14.4027 57.1253 14.0187 57.424 13.528C57.744 13.016 57.904 12.4187 57.904 11.736C57.904 10.8187 57.552 10.0827 56.848 9.528C56.1653 8.952 55.2693 8.664 54.16 8.664C53.072 8.664 52.1547 8.952 51.408 9.528C50.6827 10.104 50.32 10.8613 50.32 11.8H47.472C47.3867 10.9253 47.504 10.136 47.824 9.432C48.1653 8.70667 48.6453 8.07733 49.264 7.544C49.904 7.01067 50.64 6.60533 51.472 6.328C52.304 6.02933 53.2 5.88 54.16 5.88C55.568 5.88 56.784 6.12533 57.808 6.616C58.8533 7.10667 59.6533 7.77867 60.208 8.632C60.784 9.464 61.072 10.424 61.072 11.512C61.072 12.408 60.912 13.1547 60.592 13.752C60.272 14.3493 59.824 14.8187 59.248 15.16C58.6933 15.5013 58.0213 15.7467 57.232 15.896C56.464 16.0453 55.632 16.1413 54.736 16.184ZM64.8665 31.608L64.2265 30.776C64.5465 30.2213 64.8452 29.656 65.1225 29.08C65.3998 28.504 65.5492 27.928 65.5705 27.352L63.9385 27V23.704H67.8745V26.072C67.8745 27.4373 67.5758 28.5467 66.9785 29.4C66.4025 30.2747 65.6985 31.0107 64.8665 31.608ZM70.178 8.984V6.232H77.282V27H74.21V8.984H70.178ZM94.714 6.232V27H91.61V9.464L92.442 9.752L84.41 20.92L83.866 19.832H92.122V22.488H81.722V19.832L91.61 6.232H94.714ZM94.202 22.488V19.832H97.914V22.488H94.202ZM115.729 6.232H119.377L110.993 17.432L110.897 17.528L104.273 27H100.625L109.169 15.192L109.265 15.128L115.729 6.232ZM104.593 6.232L110.865 15.128L110.897 15.192L119.409 27H115.473L109.041 17.432L108.977 17.368L100.945 6.232H104.593ZM126.414 18.008V24.216H139.854V27H123.278V6.232H139.822V9.016H126.414V15.288H137.39V18.008H126.414ZM147.445 6.232V24.216H159.701V27H144.309V6.232H147.445Z" fill="#111111"/>
</svg>
