<svg width="30" height="30" viewBox="0 0 30 30" fill="none" xmlns="http://www.w3.org/2000/svg">
<path fill-rule="evenodd" clip-rule="evenodd" d="M1.56483 18.5355C-0.387791 16.5829 -0.387791 13.4171 1.56483 11.4645C3.51745 9.51184 6.68328 9.51184 8.6359 11.4645L12.1714 15L8.6359 18.5355C6.68328 20.4882 3.51745 20.4882 1.56483 18.5355ZM11.4643 21.364C9.5117 23.3166 9.5117 26.4824 11.4643 28.435C13.4169 30.3876 16.5828 30.3876 18.5354 28.435C20.488 26.4824 20.488 23.3166 18.5354 21.364L14.9999 17.8284L17.8283 15L21.3638 18.5355C23.3164 20.4882 26.4823 20.4882 28.4349 18.5355C30.3875 16.5829 30.3875 13.4171 28.4349 11.4645C26.4823 9.51185 23.3164 9.51185 21.3638 11.4645L17.8283 15L14.9999 12.1716L18.5354 8.63604C20.488 6.68342 20.488 3.51759 18.5354 1.56497C16.5828 -0.38765 13.4169 -0.38765 11.4643 1.56497C9.5117 3.51759 9.5117 6.68342 11.4643 8.63604L14.9999 12.1716L12.1714 15L14.9999 17.8284L11.4643 21.364Z" fill="#111111"/>
</svg>
