<svg width="56" height="56" viewBox="0 0 56 56" fill="none" xmlns="http://www.w3.org/2000/svg">
<path d="M28.0003 4.66663C15.1437 4.66663 4.66699 15.1433 4.66699 28C4.66699 40.8566 15.1437 51.3333 28.0003 51.3333C40.857 51.3333 51.3337 40.8566 51.3337 28C51.3337 15.1433 40.857 4.66663 28.0003 4.66663ZM39.1537 22.6333L25.9237 35.8633C25.597 36.19 25.1537 36.3766 24.687 36.3766C24.2203 36.3766 23.777 36.19 23.4503 35.8633L16.847 29.26C16.1703 28.5833 16.1703 27.4633 16.847 26.7866C17.5237 26.11 18.6437 26.11 19.3203 26.7866L24.687 32.1533L36.6803 20.16C37.357 19.4833 38.477 19.4833 39.1537 20.16C39.8303 20.8366 39.8303 21.9333 39.1537 22.6333Z" fill="#00D655"/>
</svg>
