<svg width="40" height="40" viewBox="0 0 40 40" fill="none" xmlns="http://www.w3.org/2000/svg">
<path d="M11.1281 19.2916C11.1281 19.2916 19.266 15.864 22.0883 14.6571C23.1702 14.1744 26.8393 12.6295 26.8393 12.6295C26.8393 12.6295 28.5328 11.9537 28.3916 13.5951C28.3446 14.2709 27.9683 16.6364 27.592 19.195C27.0275 22.8157 26.416 26.7743 26.416 26.7743C26.416 26.7743 26.3219 27.8847 25.5222 28.0778C24.7226 28.2708 23.4054 27.4019 23.1702 27.2088C22.982 27.064 19.6422 24.8916 18.4192 23.8295C18.0899 23.5398 17.7136 22.9606 18.4662 22.2847C20.1597 20.6916 22.1824 18.7123 23.4054 17.4571C23.9699 16.8778 24.5344 15.5261 22.1824 17.1674C18.8426 19.533 15.5498 21.7537 15.5498 21.7537C15.5498 21.7537 14.7972 22.2364 13.386 21.8019C11.9747 21.3675 10.3283 20.7881 10.3283 20.7881C10.3283 20.7881 9.19946 20.064 11.1281 19.2916Z" fill="#888888"/>
</svg>
