<svg width="40" height="40" viewBox="0 0 40 40" fill="none" xmlns="http://www.w3.org/2000/svg">
<path d="M29.9274 13.6672C29.2669 13.9517 28.5726 14.1498 27.8615 14.2566C28.1939 14.1996 28.6831 13.6006 28.8778 13.3582C29.1736 12.9926 29.3991 12.5751 29.5427 12.1271C29.5427 12.0938 29.5759 12.0463 29.5427 12.0225C29.5259 12.0134 29.5072 12.0086 29.4881 12.0086C29.469 12.0086 29.4502 12.0134 29.4335 12.0225C28.6613 12.441 27.8396 12.7604 26.9877 12.9732C26.958 12.9823 26.9264 12.9831 26.8962 12.9756C26.8661 12.968 26.8386 12.9524 26.8167 12.9304C26.7504 12.8514 26.679 12.7768 26.603 12.707C26.2555 12.3954 25.8613 12.1404 25.4347 11.9512C24.8589 11.7148 24.2369 11.6124 23.6158 11.6518C23.0131 11.6899 22.4247 11.8517 21.8871 12.1271C21.3578 12.4175 20.8925 12.812 20.5194 13.2869C20.1268 13.7757 19.8435 14.343 19.6883 14.9506C19.5603 15.5285 19.5458 16.1259 19.6455 16.7093C19.6455 16.8092 19.6455 16.8234 19.56 16.8092C16.1739 16.3101 13.3957 15.1075 11.1256 12.5264C11.0259 12.4123 10.9736 12.4123 10.8929 12.5264C9.90509 14.0284 10.3847 16.4051 11.6195 17.5792C11.7857 17.7361 11.9567 17.8882 12.1372 18.0308C11.571 17.9905 11.0187 17.837 10.513 17.5792C10.418 17.5174 10.3658 17.5507 10.361 17.6648C10.3475 17.8229 10.3475 17.9819 10.361 18.1401C10.4601 18.8981 10.7585 19.6161 11.2258 20.2207C11.6931 20.8254 12.3124 21.295 13.0205 21.5815C13.1931 21.6555 13.373 21.7113 13.5572 21.7479C13.0331 21.8511 12.4955 21.8672 11.9662 21.7954C11.8522 21.7716 11.8095 21.8334 11.8522 21.9428C12.5503 23.8441 14.0653 24.424 15.1766 24.7472C15.3286 24.771 15.4806 24.771 15.6515 24.809C15.6515 24.809 15.6515 24.809 15.623 24.8375C15.2953 25.4365 13.9703 25.8405 13.3624 26.0496C12.2529 26.4485 11.0699 26.601 9.89559 26.4965C9.71037 26.4679 9.66763 26.4727 9.62014 26.4965C9.57265 26.5202 9.62014 26.5725 9.67238 26.62C9.90984 26.7769 10.1473 26.9148 10.3942 27.0478C11.1294 27.4492 11.9067 27.768 12.7118 27.9985C16.8815 29.1488 21.5737 28.3027 24.7033 25.1893C27.1634 22.7461 28.0277 19.376 28.0277 16.0011C28.0277 15.8727 28.1844 15.7967 28.2747 15.7301C28.8971 15.2448 29.4458 14.6716 29.9036 14.0284C29.9829 13.9326 30.0236 13.8105 30.0176 13.6862C30.0176 13.6149 30.0176 13.6292 29.9274 13.6672Z" fill="#888888"/>
</svg>
