<svg width="56" height="56" viewBox="0 0 56 56" fill="none" xmlns="http://www.w3.org/2000/svg">
<path d="M28.0003 4.66663C15.1437 4.66663 4.66699 15.1433 4.66699 28C4.66699 40.8566 15.1437 51.3333 28.0003 51.3333C40.857 51.3333 51.3337 40.8566 51.3337 28C51.3337 15.1433 40.857 4.66663 28.0003 4.66663ZM35.8403 33.3666C36.517 34.0433 36.517 35.1633 35.8403 35.84C35.4903 36.19 35.047 36.3533 34.6037 36.3533C34.1603 36.3533 33.717 36.19 33.367 35.84L28.0003 30.4733L22.6337 35.84C22.2837 36.19 21.8403 36.3533 21.397 36.3533C20.9537 36.3533 20.5103 36.19 20.1603 35.84C19.4837 35.1633 19.4837 34.0433 20.1603 33.3666L25.527 28L20.1603 22.6333C19.4837 21.9566 19.4837 20.8366 20.1603 20.16C20.837 19.4833 21.957 19.4833 22.6337 20.16L28.0003 25.5266L33.367 20.16C34.0437 19.4833 35.1637 19.4833 35.8403 20.16C36.517 20.8366 36.517 21.9566 35.8403 22.6333L30.4737 28L35.8403 33.3666Z" fill="#F13D5E"/>
</svg>
