<svg width="107" height="24" viewBox="0 0 107 24" fill="none" xmlns="http://www.w3.org/2000/svg">
<path fill-rule="evenodd" clip-rule="evenodd" d="M16 2C16 1.44772 16.4477 1 17 1H23C23.5523 1 24 1.44772 24 2V8C24 8.55228 23.5523 9 23 9H17C16.4477 9 16 9.44771 16 10V14C16 14.5523 16.4477 15 17 15H23C23.5523 15 24 15.4477 24 16V22C24 22.5523 23.5523 23 23 23H17C16.4477 23 16 22.5523 16 22V17C16 16.4477 15.5523 16 15 16H9C8.44771 16 8 16.4477 8 17V22C8 22.5523 7.55228 23 7 23H1C0.447715 23 0 22.5523 0 22V16C0 15.4477 0.447715 15 1 15H7C7.55228 15 8 14.5523 8 14V8.99999C8 8.44771 8.44771 7.99999 9 7.99999H15C15.5523 7.99999 16 7.55227 16 6.99999V2Z" fill="white"/>
<path d="M42.552 11.888V11.768C43.272 11.816 43.936 11.912 44.544 12.056C45.152 12.2 45.68 12.424 46.128 12.728C46.576 13.032 46.92 13.432 47.16 13.928C47.416 14.408 47.544 15.008 47.544 15.728C47.544 16.576 47.32 17.344 46.872 18.032C46.424 18.72 45.792 19.264 44.976 19.664C44.176 20.064 43.232 20.264 42.144 20.264C41.104 20.264 40.176 20.056 39.36 19.64C38.544 19.224 37.912 18.672 37.464 17.984C37.016 17.28 36.832 16.488 36.912 15.608H39.024C39.04 16.104 39.184 16.552 39.456 16.952C39.728 17.336 40.104 17.64 40.584 17.864C41.064 18.072 41.584 18.176 42.144 18.176C43.088 18.176 43.824 17.944 44.352 17.48C44.88 17.016 45.144 16.36 45.144 15.512C45.144 14.696 44.848 14.048 44.256 13.568C43.664 13.072 42.84 12.824 41.784 12.824H40.176V11.072H41.784C42.488 11.072 43.072 10.968 43.536 10.76C44 10.552 44.344 10.264 44.568 9.896C44.808 9.512 44.928 9.064 44.928 8.552C44.928 7.864 44.664 7.312 44.136 6.896C43.624 6.464 42.952 6.248 42.12 6.248C41.304 6.248 40.616 6.464 40.056 6.896C39.512 7.328 39.24 7.896 39.24 8.6H37.104C37.04 7.944 37.128 7.352 37.368 6.824C37.624 6.28 37.984 5.808 38.448 5.408C38.928 5.008 39.48 4.704 40.104 4.496C40.728 4.272 41.4 4.16 42.12 4.16C43.176 4.16 44.088 4.344 44.856 4.712C45.64 5.08 46.24 5.584 46.656 6.224C47.088 6.848 47.304 7.568 47.304 8.384C47.304 9.056 47.184 9.616 46.944 10.064C46.704 10.512 46.368 10.864 45.936 11.12C45.52 11.376 45.016 11.56 44.424 11.672C43.848 11.784 43.224 11.856 42.552 11.888ZM50.1499 23.456L49.6699 22.832C49.9099 22.416 50.1339 21.992 50.3419 21.56C50.5499 21.128 50.6619 20.696 50.6779 20.264L49.4539 20V17.528H52.4059V19.304C52.4059 20.328 52.1819 21.16 51.7339 21.8C51.3019 22.456 50.7739 23.008 50.1499 23.456ZM54.1335 6.488V4.424H59.4615V20H57.1575V6.488H54.1335ZM72.5355 4.424V20H70.2075V6.848L70.8315 7.064L64.8075 15.44L64.3995 14.624H70.5915V16.616H62.7915V14.624L70.2075 4.424H72.5355ZM72.1515 16.616V14.624H74.9355V16.616H72.1515ZM88.2969 4.424H91.0329L84.7449 12.824L84.6729 12.896L79.7049 20H76.9689L83.3769 11.144L83.4489 11.096L88.2969 4.424ZM79.9449 4.424L84.6489 11.096L84.6729 11.144L91.0569 20H88.1049L83.2809 12.824L83.2329 12.776L77.2089 4.424H79.9449ZM96.3105 4.424V17.912H105.503V20H93.9585V4.424H96.3105Z" fill="white"/>
</svg>
