<svg width="40" height="40" viewBox="0 0 40 40" fill="none" xmlns="http://www.w3.org/2000/svg">
<path fill-rule="evenodd" clip-rule="evenodd" d="M19.9252 9.19507C13.7137 9.19507 8.68262 14.2061 8.68262 20.3929C8.68262 25.3479 11.9008 29.5331 16.3697 31.0168C16.9318 31.1148 17.1426 30.7789 17.1426 30.485C17.1426 30.219 17.1286 29.3372 17.1286 28.3994C14.3039 28.9173 13.5731 27.7135 13.3483 27.0836C13.2218 26.7617 12.6737 25.7679 12.1959 25.5019C11.8024 25.292 11.2403 24.7741 12.1819 24.7601C13.0672 24.7461 13.6996 25.5719 13.9104 25.9078C14.9222 27.6015 16.5383 27.1256 17.1848 26.8317C17.2832 26.1038 17.5783 25.6139 17.9015 25.3339C15.4 25.054 12.7861 24.0882 12.7861 19.805C12.7861 18.5873 13.2218 17.5794 13.9385 16.7956C13.8261 16.5157 13.4326 15.3679 14.0509 13.8282C14.0509 13.8282 14.9925 13.5342 17.1426 14.976C18.042 14.724 18.9977 14.598 19.9533 14.598C20.9089 14.598 21.8645 14.724 22.7639 14.976C24.914 13.5202 25.8556 13.8282 25.8556 13.8282C26.474 15.3679 26.0805 16.5157 25.968 16.7956C26.6847 17.5794 27.1204 18.5733 27.1204 19.805C27.1204 24.1022 24.4925 25.054 21.991 25.3339C22.3985 25.6839 22.7499 26.3557 22.7499 27.4055C22.7499 28.9033 22.7358 30.107 22.7358 30.485C22.7358 30.7789 22.9466 31.1288 23.5087 31.0168C27.9495 29.5331 31.1677 25.3339 31.1677 20.3929C31.1677 14.2061 26.1367 9.19507 19.9252 9.19507Z" fill="#888888"/>
</svg>
